<?xml version="1.0" standalone="no"?>
<!DOCTYPE svg PUBLIC "-//W3C//DTD SVG 20010904//EN"
 "http://www.w3.org/TR/2001/REC-SVG-20010904/DTD/svg10.dtd">
<svg version="1.0" xmlns="http://www.w3.org/2000/svg"
 width="256.000000pt" height="256.000000pt" viewBox="0 0 256.000000 256.000000"
 preserveAspectRatio="xMidYMid meet">
<metadata>
Created by potrace 1.13, written by Peter Selinger 2001-2015
</metadata>
<g transform="translate(0.000000,256.000000) scale(0.100000,-0.100000)"
fill="#000000" stroke="none">
<path d="M990 2541 c-103 -30 -135 -54 -202 -146 -37 -50 -57 -67 -88 -71 -92
-14 -173 -88 -173 -158 0 -67 41 -125 204 -286 86 -85 162 -166 169 -179 22
-43 29 -79 16 -84 -16 -6 -65 15 -96 43 -96 85 -319 130 -417 83 -20 -9 -43
-29 -52 -45 -17 -30 -43 -44 -89 -47 -45 -3 -56 -24 -58 -114 -1 -78 -4 -91
-32 -134 -17 -26 -49 -68 -70 -92 -46 -51 -64 -101 -63 -181 0 -64 31 -144 61
-160 10 -6 24 -16 32 -22 7 -7 32 -26 56 -41 23 -15 50 -43 58 -61 9 -18 35
-45 57 -60 102 -65 266 -5 447 164 36 34 84 72 106 86 40 24 99 38 115 28 27
-16 -67 -132 -186 -230 -174 -142 -243 -254 -259 -417 -4 -48 27 -113 65 -132
44 -23 72 -56 99 -114 27 -59 83 -121 130 -146 61 -32 188 -15 258 33 81 55
173 78 247 60 31 -8 103 18 125 44 11 12 33 54 49 93 27 63 29 79 29 180 -1
60 -5 119 -9 130 -4 11 -19 58 -34 105 -28 90 -152 350 -167 350 -5 0 -6 -17
-2 -37 19 -101 3 -270 -28 -310 -15 -19 -23 -9 -47 56 -12 33 -25 62 -29 65
-4 2 -6 -19 -5 -47 3 -73 -14 -125 -50 -161 l-31 -31 -14 35 c-19 46 -20 54
-21 130 l-1 65 -53 -105 c-62 -125 -96 -171 -153 -211 -54 -37 -74 -37 -75 -1
-7 131 35 239 156 401 70 95 85 113 147 185 29 33 36 63 16 63 -7 0 -42 8 -78
17 -117 30 -230 10 -329 -58 -36 -25 -121 -44 -121 -27 0 4 7 22 15 39 27 52
103 119 171 148 l63 28 -27 19 c-44 30 -98 56 -125 61 -31 5 -95 35 -103 47
-7 12 60 38 136 53 58 11 136 12 180 2 52 -11 151 -60 203 -100 26 -20 49 -36
51 -36 3 0 2 10 -7 80 -16 113 -77 280 -173 473 -35 71 -64 130 -64 132 0 12
112 -36 136 -59 6 -6 22 -20 35 -31 13 -11 34 -34 47 -49 12 -16 26 -26 30
-22 10 11 12 212 2 247 -20 68 48 3 91 -87 16 -34 32 -72 34 -85 9 -42 26
-166 24 -175 -4 -22 2 -45 10 -40 9 6 38 85 65 178 9 31 32 79 50 106 18 27
40 67 48 88 55 140 -85 334 -329 458 -64 32 -107 36 -173 17z"/>
<path d="M1679 2043 c-48 -51 -108 -127 -146 -188 -25 -38 -141 -281 -166
-345 -75 -192 -89 -268 -57 -300 50 -50 107 42 139 225 16 89 18 97 30 128 6
15 9 27 6 27 -2 0 14 44 36 97 45 112 123 261 181 345 22 33 38 61 35 64 -2 2
-28 -22 -58 -53z"/>
<path d="M2120 1964 c-8 -3 -44 -15 -80 -26 -117 -37 -225 -103 -302 -184 -37
-40 -120 -165 -113 -172 2 -2 37 12 78 31 163 76 297 108 364 86 36 -11 35
-27 -1 -68 -19 -21 -176 -108 -176 -97 0 2 -33 -11 -72 -31 -80 -38 -184 -112
-236 -166 l-33 -34 51 13 c92 24 182 32 310 30 144 -3 156 -6 264 -50 96 -39
122 -46 198 -52 49 -4 60 -1 81 18 55 53 64 120 34 248 -17 72 -13 109 19 176
31 65 28 82 -23 151 -42 58 -97 95 -168 116 -50 14 -166 21 -195 11z"/>
<path d="M1703 1162 c-51 -9 -93 -19 -93 -24 0 -4 6 -8 13 -9 154 -10 310 -92
375 -198 29 -46 31 -71 8 -71 -7 0 -49 18 -94 40 -45 21 -101 44 -124 50 -24
6 -51 14 -61 16 -12 4 -2 -16 31 -63 66 -91 82 -143 57 -183 -9 -15 -36 2
-118 76 -61 55 -161 124 -180 124 -3 0 10 -24 30 -52 64 -95 105 -192 115
-276 28 -237 37 -271 90 -321 48 -47 61 -51 147 -47 74 3 130 27 175 75 34 36
65 44 167 45 65 1 80 5 110 27 19 15 45 47 58 73 19 39 22 55 16 99 -13 93
-11 111 12 153 40 70 36 147 -12 248 -58 122 -186 205 -344 222 -115 12 -288
10 -378 -4z"/>
</g>
</svg>
